<?xml version="1.0" encoding="UTF-8"?>
<svg id="Layer_1" data-name="Layer 1" xmlns="http://www.w3.org/2000/svg" width="729" height="377" viewBox="0 0 729 377">
  <path d="M0,377c1.7-14.7,5.91-41.32,9.24-60.62,2.9-17.42,6.83-34.66,11.76-51.62,2.55-8.61,5.39-16.95,8.44-24.79,3.23-8.3,6.81-16.34,10.65-23.91,3.98-7.86,8.4-15.5,13.23-22.87,4.95-7.55,10.36-14.79,16.18-21.69,15.41-18.24,29.69-38.21,43.49-57.53l.06-.09c5.7-7.97,11.59-16.21,17.48-24.21,4.7-6.38,9.9-12.38,15.56-17.93,5.47-5.34,11.31-10.28,17.5-14.77,12.33-8.81,25.6-16.23,39.56-22.12,10.69-4.63,21.28-8.82,31.5-12.45,10.82-3.84,21.6-7.18,32.04-9.94,10.97-2.9,21.95-5.26,32.63-7,11.01-1.81,22.11-3.01,33.26-3.62,2.66-.14,5.35-.29,7.95-.44,11.62-.65,23.64-1.32,35.45-1.4h5.1c11.7-.02,23.38,.92,34.92,2.81,11.68,2,23.22,4.79,34.52,8.35,10.97,3.47,21.7,7.65,32.12,12.51,10.29,4.82,20.28,10.26,29.91,16.3,9.65,6.06,18.96,12.64,27.89,19.71,8.75,6.91,17.52,14.56,26.06,22.74,8.17,7.82,16.38,16.36,24.43,25.39,7.64,8.58,15.37,17.89,22.98,27.67,7.17,9.21,14.48,19.16,21.73,29.56,13.29,19.07,24.48,36.39,34.22,52.93,9.8,16.52,18.69,33.56,26.61,51.06,7.64,16.93,14.17,34.34,19.53,52.12,5.53,18.41,9.87,36.89,13,55.86" style="fill: #093c61;"/>
</svg>