<?xml version="1.0" encoding="UTF-8"?>
<svg id="Layer_1" data-name="Layer 1" xmlns="http://www.w3.org/2000/svg" width="44" height="42.49" viewBox="0 0 44 42.49">
  <path d="M31.83,24.15l-8.75,7c-.64,.5-1.53,.5-2.17,0l-8.75-7c-.7-.67-.73-1.77-.06-2.47,.58-.62,1.53-.72,2.23-.26l5.91,4.72V1.79c-.02-.97,.74-1.77,1.71-1.79,.97-.02,1.77,.74,1.79,1.71V26.14l5.91-4.72c.7-.67,1.81-.64,2.47,.06,.67,.7,.64,1.81-.06,2.47-.07,.07-.15,.13-.24,.19h0Z" style="fill: #ffb600;"/>
  <path d="M22,42.49c-5.09,.02-10.04-1.7-14.03-4.87C4.06,34.52,1.27,30.21,.04,25.37c-.21-.88,.33-1.77,1.22-1.97,.87-.21,1.74,.32,1.97,1.18,1.05,4.14,3.43,7.82,6.78,10.47,7.03,5.55,16.96,5.55,23.99,0,3.35-2.65,5.73-6.33,6.78-10.47,.23-.88,1.13-1.4,2-1.17,.86,.23,1.38,1.1,1.18,1.97-1.23,4.84-4.01,9.14-7.93,12.25-3.99,3.17-8.93,4.89-14.03,4.87" style="fill: #ffb600;"/>
</svg>