<svg xmlns="http://www.w3.org/2000/svg" width="55.07" height="68.83" viewBox="0 0 55.07 68.83">
  <path d="M49.59,68.83h-7.16c-.69-.03-1.38-.09-2.06-.08-2.9,.05-5.8-.12-8.7-.21-3-.09-6.01-.22-9.01-.23-4.84-.02-9.67-.27-14.51-.33-1.43-.02-2.87,.04-4.3-.08-.23-.02-.44,0-.43-.34,.04-2.34-.33-4.65-.23-7,.14-2.02,.45-4.02,.94-5.98,.3-1.33,.74-2.62,1.04-3.95,.51-2.26,1.34-4.44,2.46-6.46,1.01-1.78,2.14-3.48,3.38-5.1,1.84-2.48,3.78-4.86,6.7-6.18,.52-.28,1.02-.58,1.5-.92,.17-.11,.36-.21,.55-.29,3.78-1.43,7.86-1.88,11.86-1.33,1.36,.25,2.69,.63,3.97,1.15,2.37,.76,4.61,1.86,6.66,3.27,1.7,1.14,3.21,2.53,4.48,4.13,1.01,1.35,1.89,2.81,2.82,4.22,.37,.52,.67,1.09,.9,1.68,.82,2.26,1.58,4.53,2.18,6.86,.41,1.55,.83,3.11,1.09,4.69,.57,3.89,.81,7.82,.71,11.75,0,.65,0,.62-.64,.61-1.4-.03-2.79,.02-4.18,.13" style="fill: #e25105;"/>
  <path d="M16.48,27.92c-3.15,.12-6.29-.43-9.21-1.62C2.5,24.19,.17,20.41,0,15.26c.02-3.46,.45-6.91,1.28-10.27,.3-1.47,.69-2.93,.99-4.4C2.36,.08,2.56-.03,3.06,.04c3.67,.51,7.18,1.8,10.32,3.76,3.15,1.91,6.02,4.26,8.51,6.98,.22,.25,.38,.53,.49,.84,1.27,3.12,2.14,6.4,2.57,9.74,.23,1.74,.17,3.5-.17,5.21-.03,.38-.34,.68-.73,.68-2.51,.41-5.04,.63-7.58,.66" style="fill: #003854;"/>
  <path d="M55.04,10.81c.32,3.6-1.38,7.29-4.39,10.47-2.79,2.85-6.4,4.75-10.32,5.44-2.63,.51-5.32,.67-7.99,.48-.32,.03-.61-.2-.64-.52v-.03c-.39-1.94-.43-3.93-.12-5.88,.47-3.15,1.31-6.22,2.51-9.17,.39-.85,.93-1.62,1.58-2.29,3.11-3.83,7.24-6.71,11.91-8.3C49.49,.38,51.5,.04,53.52,0c.37,0,.52,.06,.58,.48,.5,3.43,.81,6.88,.94,10.34" style="fill: #003854;"/>
</svg>