<svg xmlns="http://www.w3.org/2000/svg" width="77.52" height="86.64" viewBox="0 0 77.52 86.64">
  <path d="M51.32,0h1.3c.2,.54,.7,.39,1.09,.46,2.48,.36,4.93,.95,7.31,1.76,2.18,.83,3.43,2.6,2.71,4.71-.69,2.04,.15,3.04,1.56,4.07,7.2,5.27,10.48,12.63,11.65,21.28,1.48,10.97-.13,21.65-2.45,32.29-.82,3.75-.92,3.73-4.73,3.15-.21-.02-.43-.03-.65-.02-7.74-2.17-15.44-4.5-23.34-6.01-.79-.51-1.71-.78-2.65-.78-3.83-1.1-7.62-2.34-11.54-3.12-.88-.28-1.75-.61-2.64-.83-6.81-1.71-13.62-3.48-20.46-5.06-2.06-.48-3.12-1.17-2.15-3.38,.06-.21,.1-.42,.11-.64,2.31-11.75,6.3-22.7,15.08-31.31,7.11-6.98,15.07-12.26,25.61-11.71,1.72,.09,2.52-.44,2.7-2.1,.16-1.06,.69-2.03,1.49-2.75m2.63,3.11c-.61,.21-1.57,.33-1.75,1.37-.21,1.24,.96,.85,1.49,.98,1.81,.43,3.59,1,5.32,1.7,.47,.19,1.11,1.17,1.56,.14,.32-.74,.55-1.8-.47-2.29-1.95-.92-4.02-1.56-6.16-1.89" style="fill: #e25105;"/>
  <path d="M69.12,67.7c-1.16,1.16-1.63,3.14-3.82,3.1-.52,.08-.92,.49-.99,1.02-.1,1.49-.37,2.57-2.34,1.87-.34-.12-2.12,.18-1.08,1.65,.51,.73-.13,1.19-.41,1.71-.26,.49-.77,.36-1.13,.14-.84-.63-2.02-.5-2.7,.3-.77,.73-1.56,.11-2.16-.27-.98-.62,.25-.8,.36-1.22,.36-1.37-1.01-1.34-1.5-1.31-2.37,.12-3.56-2.11-5.62-2.68-.76-.21-.51-1.66,.46-2.24,.59-.25,1.1-.66,1.49-1.17-1.46-.4-2.46,.04-3.5,1.65-.44,.68-.72,1.2-1.8,1.04-.99-.15-1.91,.52-2.06,1.51,0,.05-.01,.09-.02,.14-.2,1.09-.63,2.01-2.21,1.27-.64-.3-2.18-.14-1.42,1.49,.36,.78-.22,1.21-.55,1.7-.41,.62-.93,.15-1.3-.1-.68-.58-1.69-.56-2.35,.06-1.1,.9-1.82-.15-2.67-.53-.02-.83,1.04-.74,1.15-1.48-.13-.14-.28-.26-.44-.37-1.5-.8-3.03-1.52-4.6-2.17-1.35-.59-3.42-.56-5.19-.65-.6-.03-.83,.24-.68,1.11,.09,.68-.39,1.31-1.07,1.4-.37,.05-.74-.07-1.01-.32-1.19-1.29-2.24-.73-3.4-.21-.12,.85,1.71,1.19,.37,2.34-1.28,1.1-1.76,.02-2.44-.58-.57-.5-1.06-.89-1.9-.59-.92,.33-.31,.89-.42,1.32-.09,.75-.77,1.28-1.52,1.19-.27-.03-.53-.15-.74-.33-.66-.5-1.22-1.01-2.08-.56-1.47,.77-2.42,.11-3.19-1.08,.41-.79,1.97-.43,1.77-1.29-.27-.94-1.25-1.48-2.2-1.21-.08,.02-.16,.05-.23,.09-.36,.11-.75-.1-.85-.47-.02-.08-.03-.16-.03-.24-.04-1.9-1.44-2.87-2.64-3.96-.68-.62-.54-1.17-.22-1.91,.39-.88,.79-.7,1.47-.34,.63,.33,1.22-.14,1.83-.42-.19-.71-.73-1.27-1.43-1.49-.64-.24-1.42-.59-1.26-1.24,.2-.87,.93-1.51,1.81-1.59,1.52,.04,2.98-.6,3.99-1.74,.24-.28,.56-.55,.93-.34,1.56,.88,2.44,.17,3.24-1.16,.45-.75,1-1.24,2.05-.4,.72,.57,2.08,.87,1.88-.99-.08-.82,.59-1.09,1.05-1.46,.58-.47,.87,.19,1.21,.48,.54,.45,.99,1.09,1.85,.65,1.38-.69,2.12,.21,2.93,1.28l-1.81,.95c1.66,1.35,3.46,2.27,4.57,4.04,.46,.76,1.45,1.01,2.22,.55,.02-.01,.04-.02,.06-.04,.83-.52,1.15-.88,.6-1.9-.16-.29,.38-2.11,1.74-1.25,1.45,.92,2.4,.27,3.39-.68-.06-.8-1.8-.75-1.01-1.98,3.92,.78,7.71,2.01,11.54,3.12-.25,.39-1.1,.59-.18,1.25,1.18,.87,1.96,.08,2.84-.47,7.91,1.52,15.6,3.84,23.34,6.01m-41.02,.19c-1.65-1.47-3.34-1.2-5.31-.48,2.21,2.19,3.33,2.26,5.31,.48m9.12-5.88c-1.55-1.55-2.78-.92-3.95,.33,1.42,1.58,2.65,.98,3.95-.33m-22.88,3.84c.94,1.56,2.12,1.84,3.62,.78-.81-1.69-2-1.8-3.62-.78m18.84,1.6c1.41,1.46,2.58,1.08,3.68-.2-1.24-1.35-2.43-1.24-3.68,.2m-11.52,2.43c-1.05-1.56-2.18-2-3.65-.7,.95,1.53,2.07,1.81,3.65,.7m-8.95,.96c1.18,1.81,2.45,1.63,3.85,.63-1-1.81-2.29-1.68-3.85-.63m24.92-6.25c1.49,1.54,2.7,1.07,3.83-.36-1.52-1.64-2.68-.73-3.83,.36m-32.46-.86c1.17,2.07,2.4,1.31,3.67,.5-1.03-1.79-2.3-1.12-3.67-.5m49.6,3.83q1.97,1.24,3.47-.53-1.83-1.09-3.47,.53m-41.88,.66c-1.02-2.04-2.35-1.57-3.79-.7,1.02,1.87,2.33,1.54,3.79,.7m37.66,2.47c1.39,.79,2.66,1.51,3.72-.41-1.32-.86-2.54-1.33-3.72,.41m-27.64-5.54c-1.02-1.32-1.97-2.31-3.55-.92,.89,1.26,1.84,2.11,3.55,.92m5.92,.07c1.34,1.39,2.55,1.23,3.75-.16-1.28-1.29-2.51-1.4-3.75,.16m25.11,.03c-1.12-.87-2.12-1.29-3.21-.16-.47,.49-.1,.77,.21,1.01,1.36,1.1,2.11,.1,3-.86m-25.11,4.9c1.25,1.03,2.44,1.73,3.69-.02-1.24-1.06-2.43-1.58-3.69,.02m12.82-.36c-1.45-1.43-2.43-.74-3.42,.41q1.62,.98,3.42-.41m-31.14-7.76c.65,1.58,1.66,1.52,2.82,.98,.38-.18,.54-.41,.27-.81-.92-1.32-1.96-.61-3.09-.17m-2.44,10.37c.83,1.38,1.84,1.97,3.33,.81-.89-1.31-1.87-2.01-3.33-.81m51.88-2.55q1.78,.98,3.29-.68c-1.31-1.31-2.23-.47-3.29,.68m-.84,2.59c-.39-.51-1.03-.77-1.67-.67-.58,.15-1.38,.5-1.27,1.15,.1,.62,.95,.87,1.57,.74,.65-.12,1.18-.59,1.37-1.22m-16.5-5.26c.92,1.1,1.8,1.28,2.8,.36,.32-.3,.39-.58,.07-.89-1.11-1.09-1.91-.25-2.87,.53m-24-6c-.63-1.33-1.5-1.59-2.65-1.02-.4,.19-.48,.44-.2,.82,.83,1.11,1.77,.95,2.85,.2m-14.2,7.8c.82,1.44,1.84,1.73,3.17,.81-.67-1.38-1.64-1.81-3.17-.81m32.77,3.77c-1.08-1.41-2.11-1.07-3.16,.07,1.08,1.35,2.11,1.16,3.16-.07" style="fill: #ffb20a;"/>
  <path d="M35.06,79.14c14.79,0,25.5,.04,36.21-.04,2.07-.02,2.71,.66,2.63,2.72-.15,3.62-.04,3.62-3.55,3.81-11.71,.63-23.43,.41-35.14,.89-9.41,.38-18.81-.32-28.21-.1-1.48,.03-1.95-.39-1.94-1.92,.02-5.02-.04-5.05,4.99-5.01,9.71,.08,19.41-.1,25.02-.34" style="fill: #e25105;"/>
</svg>