<svg xmlns="http://www.w3.org/2000/svg" width="121.24" height="82.13" viewBox="0 0 121.24 82.13">
  <path d="M14.39,41.43c2.87,2.43,5.78,4.82,8.6,7.3,.94,.83,1.59,1.06,2.48-.03,7.93-9.78,26.22-6.48,31.7,4.54,1.9,3.82,2.12,3.71,6.37,2.84,.58-.12,1.16-.22,1.74-.33,.15,.9,.84,.97,1.58,1.19,1.52,.47,3.24-.03,4.62,1-3,.75-5.98,1.6-9.01,2.2-1.59,.32-2.04,.85-1.61,2.47,.78,2.99,.7,3.1-2.35,3.34-12.52,.99-24.97,2.41-37.17,5.52-1.48,.38-2.96,.79-4.55,1.23,.29-6.66,.92-13.07,4.55-18.74,.65-1.02,.33-1.49-.45-2.16-3.14-2.68-6.22-5.42-9.32-8.14l2.81-2.21" style="fill: #e05428;"/>
  <path d="M80.26,54.17c.19-1.62-1.21-1.02-1.83-1.11-3.85-.6-7.73-1-11.58-1.6-.82-.12-2.37,.47-2.36-1.08,.02-1.94,1.62-1.04,2.51-.94,4.46,.51,8.9,1.13,13.34,1.75,1.18,.16,2.05,0,2.2-1.38,.16-.26,.33-.52,.5-.77,.98-.18,1.35-1.09,2-1.65,8.5-7.43,21.41-6.57,28.84,1.93,.25,.28,.49,.58,.72,.87,5.15,6.52,6.35,13.98,6.63,22.23-4.35-2.23-8.84-2.87-13.41-3.16,.07-1.72,.16-3.43,.2-5.15,.02-.79,.07-1.68-1.18-1.53,.58-3.35,2.17-6.37,3.19-9.57,.24-.74,1.05-1.52-.43-2.06-1.39-.51-1.46,.38-1.74,1.21-1.16,3.48-2.32,6.95-3.48,10.42h-.55c.82-4.55,1.63-9.08,2.45-13.61,.13-.75,.69-1.58-.66-1.84-1.33-.25-1.19,.72-1.35,1.47-.96,4.66-1.92,9.32-2.87,13.99h-1.05c0-4.33-.09-8.65,.02-12.97,.04-1.58-.82-1.51-1.89-1.64-1.46-.17-1.28,.75-1.29,1.63-.04,4.32-.09,8.65-.14,12.97l-1.58,.02c-.06-2.13,.01-4.26,.21-6.39,.39-2.66-.48-4.7-2.77-6.87v10.4c-1.13-2.11-2.04-4.34-2.72-6.64-.23-.7-.14-1.75-1.46-1.37-1.35,.39-.88,1.28-.62,2.1,.92,2.94,1.86,5.89,2.8,8.82q-3.14,.1-2.76,2.72c-.16,.4-.31,.8-.47,1.2-3.21-.24-6.41-.54-9.62-.69-1.2-.06-1.56-.45-1.29-1.56,.47-1.91,.93-3.81,1.39-5.72,.51,.02,1.03,0,1.53,.05,1,.12,2.01,.25,1.93-1.23-.06-1.23,1.24-3.08-1.38-3.23" style="fill: #0a3d56;"/>
  <path d="M38.53,15.24c5.09-.68,13.09,6.05,13.38,13.81,.25,6.61-6.53,12.73-13.85,12.73-7.45,0-12.68-5.42-12.75-13.16-.05-6.53,6.5-13.97,13.22-13.37" style="fill: #053a56;"/>
  <path d="M99.04,41.3c-7.24,.06-13.81-5.56-13.65-12.01,.2-7.74,7.87-13.39,12.63-13.54,7.21-.21,13.12,6.51,13.28,12.78,.39,6.64-4.67,12.35-11.31,12.74-.32,.02-.63,.03-.95,.02m-7.89-13.13c1.57-.02,3.13-.04,4.69-.06,.67,0,1.49,.43,1.7-.75,.38-2.16-1.6-5.27-3.64-5.63s-3.84,1.38-4.22,4.1c-.04,.29-.02,.59-.08,.88-.29,1.35,.3,1.75,1.55,1.47m15.01-.16c1.42,.34,1.89-.28,1.68-1.63-.29-1.88-.85-3.58-2.73-4.5-1.07-.59-2.4-.45-3.32,.35-1.09,1.08-1.86,2.44-2.24,3.93-.6,1.7,.36,2.24,1.97,1.91l4.63-.06" style="fill: #f9af1c;"/>
  <path d="M88.15,65.35q-.38-2.62,2.76-2.72l4.57-.06,1.58-.02c1.1,0,2.2,0,3.3,0h3.48c.18-.01,.36,0,.55,0h2.45c1.25-.15,1.2,.74,1.18,1.53-.04,1.72-.13,3.43-.2,5.15-.11,.43-.23,.87-.34,1.3-.48,.11-1.06-.05-1.38,.51-.62,.03-1.32-.24-1.78,.44-.38-.01-.73,.01-.9,.43-1.38,.24-1.96,.9-1.53,2.38,.15,.84,.19,1.68,.15,2.53-1.13,.37-2.32,.55-3.51,.55-.07-.77-.09-1.55-.05-2.33,.19-1.5-.55-1.91-1.87-1.78-1.32-.85-2.78-.27-4.17-.43-.95-2.26-1.87-4.54-2.86-6.79-.24-.56-.39-1.64-1.44-.7" style="fill: #e05428;"/>
  <path d="M14.39,41.43l-2.81,2.21C5.51,46.1-.38,39.62,.11,33.51c.09-1.09,.51-1.34,1.49-1.35,4.57-.01,9.14-.05,13.71-.15,1.16-.02,1.56,.42,1.56,1.54-.08,2.8-.94,5.53-2.48,7.88" style="fill: #f9af1c;"/>
  <path d="M83.04,49.03c-.16,.26-.33,.52-.5,.77-4.82-.53-9.65-1.06-14.48-1.57-.93-.1-1.44-.35-1.41-1.46,.12-3.95,3.64-8.05,7.4-8.49,4.85-.57,9.61,4.52,8.82,9.44-.08,.48-.51,.95,.17,1.31" style="fill: #f9af1c;"/>
  <path d="M102.05,76.84c.05-.85,0-1.69-.15-2.53-.43-1.48,.15-2.14,1.53-2.38h0c-.74,1.07-.49,1.84,.77,2.09,2.29,.56,4.7,.45,6.93-.32,1.86-.71,1.9-1.3,.24-2.6,.07-.09,.14-.17,.21-.26,1.85,.22,2.75,1.08,2.4,3.1-.3,1.79,1.01,4.06-1.05,5.3-2.5,1.38-5.47,1.62-8.15,.66-1.52-.45-3-1-2.73-3.07" style="fill: #f9af1c;"/>
  <path d="M96.63,73.28c1.32-.13,2.06,.28,1.87,1.79-.04,.78-.03,1.55,.04,2.33,0,3.44-1.05,4.54-4.53,4.71-.96,.05-1.92,.05-2.88,0-3.41-.15-4.44-1.22-4.58-4.58-.06-.65-.17-1.3-.33-1.93-.15-.82,.29-1.05,1-1.02,.05,.21,.03,.5,.16,.61,1.75,1.43,7.66,1.22,9.28-.23,.73-.66,.35-1.12-.05-1.66" style="fill: #ddddd3;"/>
  <path d="M80.26,54.17c2.62,.15,1.32,2,1.38,3.22,.07,1.48-.94,1.35-1.94,1.23-.5-.06-1.02-.04-1.53-.05-2.18-.58-4.43-.8-6.68-.64-1.38-1.03-3.1-.53-4.62-1-.74-.23-1.43-.29-1.58-1.19,1.21-3.09,1.2-3.03,4.72-2.6,3.41,.42,6.83,.69,10.25,1.02" style="fill: #f9af1c;"/>
  <path d="M6.9,17.81c-.21,1.97-.43,3.56-.52,5.15-.06,1.14-.5,1.58-1.65,1.4-.73-.11-1.47-.12-2.2-.03-1.22,.15-1.75-.37-1.9-1.53s-.39-2.32-.59-3.47c-.07-.45-.1-.95,.51-1,.45-.04,.54,.41,.63,.76,.21,1.01,.53,1.98,.96,2.91,0-1.82,.02-3.65,0-5.47-.01-.69-.13-1.42,.86-1.42,.92,0,.71,.8,.75,1.32,.17,1.9,.28,3.81,.41,5.76,.94-.28,.7-1.08,.72-1.64-.06-.98,.4-1.92,1.21-2.47,.87-.4,1.31-1.39,1.02-2.31-.13-.58-.47-1.43,.64-1.48,.95-.04,.71,.76,.75,1.28,.16,2.57,.3,5.14,.41,7.71,.02,.4,.18,1-.42,1.08-.74,.1-.73-.54-.79-1.04-.19-1.71,.07-3.5-.8-5.5" style="fill: #f9af1c;"/>
  <path d="M14.54,23.61c.24-1.29,.41-2.6,.77-3.86,.16-.58-.06-1.69,1.14-1.48,1.23,.22,.61,1.07,.51,1.72-.22,.85-.38,1.72-.46,2.59,0,2.06-1.31,2-2.79,1.96-1.84-.04-.98-1.42-1.22-2.24-.17-.57,.17-1.29-.74-2-.12,1.2-.22,2.16-.31,3.12-.06,.64-.23,1.14-1.05,1.09-.88-.05-.84-.61-.79-1.24,.18-2.27,.31-4.54,.51-6.8,.05-.58-.17-1.44,.87-1.48,.9-.03,.76,.92,1.09,1.2,2.35,2.02,1.24,4.98,2.47,7.4" style="fill: #f9af1c;"/>
  <path d="M96.63,73.28c.4,.54,.78,1.01,.05,1.66-1.62,1.45-7.53,1.66-9.28,.24-.13-.11-.11-.4-.16-.61l.68-.84c.23-.1,.46-.21,.69-.31l1.43-.3c.78,.53,.22,2.49,2.04,1.9,1.48-.48,.17-1.47,.38-2.18,1.39,.17,2.86-.42,4.18,.43" style="fill: #0a3d56;"/>
  <path d="M92.45,72.84c-.2,.71,1.1,1.69-.38,2.18-1.82,.59-1.26-1.37-2.03-1.9-1.34-1.99-1.42-4.43-2.36-6.57,.15-.4,.31-.8,.47-1.2,1.05-.94,1.2,.14,1.44,.7,.98,2.25,1.91,4.52,2.85,6.79" style="fill: #f9af1c;"/>
  <path d="M16.05,14.73c-.1,.17-.15,.42-.31,.51-.47,.27-.86,.01-1.13-.36-1.12-1.54-2.23-3.08-3.31-4.65-.87-1.27-1.66-2.59-2.52-3.86-.31-.31-.31-.81,0-1.12,.07-.07,.15-.12,.24-.16,.54-.36,.8,.02,1.04,.39,1.88,2.88,3.77,5.76,5.65,8.64,.12,.18,.21,.38,.35,.61" style="fill: #f9af1c;"/>
  <path d="M7.87,0c.6,.46,.14,.94-.01,1.36-.98,2.69-1.97,5.38-3.02,8.05-.23,.57-.14,1.71-1.31,1.34-1.18-.38-.44-1.22-.23-1.81,.78-2.22,1.69-4.39,2.44-6.62,.28-1.08,1.08-1.95,2.14-2.31" style="fill: #f9af1c;"/>
  <path d="M106.11,71.06c.31-.56,.9-.4,1.38-.51,1.37,.07,2.77-.24,4.1,.31l-.2,.26-5.29-.07v.02Z" style="fill: #f9af1c;"/>
  <path d="M88.6,73.42l-.69,.31c.11-.27,.41-.41,.69-.31" style="fill: #ddddd3;"/>
  <path d="M95.48,62.58c-1.52,.02-3.05,.04-4.57,.06-.93-2.94-1.87-5.88-2.8-8.82-.26-.82-.73-1.7,.62-2.1,1.32-.38,1.23,.67,1.46,1.37,.67,2.3,1.58,4.53,2.71,6.64v-10.39c2.3,2.17,3.16,4.2,2.78,6.87-.19,2.12-.26,4.26-.21,6.39" style="fill: #f9af1c;"/>
  <path d="M100.36,62.57h-3.3c.05-4.33,.09-8.66,.14-12.98,0-.88-.17-1.8,1.29-1.63,1.07,.13,1.93,.07,1.89,1.64-.11,4.32-.02,8.65-.02,12.97" style="fill: #f9af1c;"/>
  <path d="M103.85,62.55h-2.43c.95-4.65,1.91-9.32,2.87-13.98,.15-.74,.02-1.72,1.35-1.47,1.36,.26,.8,1.1,.66,1.84-.82,4.53-1.63,9.06-2.45,13.6" style="fill: #f9af1c;"/>
  <path d="M106.85,62.57h-2.45c1.16-3.47,2.32-6.95,3.48-10.43,.28-.83,.34-1.72,1.73-1.2,1.48,.55,.67,1.33,.43,2.06-1.02,3.2-2.61,6.22-3.19,9.57" style="fill: #f9af1c;"/>
  <path d="M101.52,28.08c-1.61,.33-2.57-.21-1.98-1.91,.38-1.49,1.15-2.85,2.24-3.93,.92-.8,2.25-.94,3.32-.35,1.88,.92,2.44,2.62,2.73,4.5,.21,1.35-.26,1.97-1.68,1.63,.02-.59,0-1.17-.05-1.75-.18-1.25-.7-2.33-2.13-2.4-1.5-.08-2.22,.92-2.53,2.27-.17,.64-.15,1.32,.07,1.94" style="fill: #fffcfc;"/>
  <path d="M91.14,28.18c-1.25,.29-1.84-.12-1.55-1.47,.06-.28,.04-.58,.08-.88,.38-2.72,2.18-4.46,4.22-4.1s4.03,3.48,3.65,5.63c-.21,1.18-1.03,.75-1.7,.75,.03-.51,.02-1.02-.04-1.52-.25-1.35-.68-2.63-2.4-2.56-1.62,.06-2.2,1.22-2.37,2.63-.01,.5,.02,1,.11,1.5" style="fill: #fffcfc;"/>
  <path d="M101.52,28.08c-.22-.62-.25-1.3-.07-1.94,.31-1.35,1.03-2.34,2.53-2.27,1.42,.07,1.95,1.15,2.13,2.4,.05,.58,.07,1.17,.05,1.75l-4.63,.05" style="fill: #0a3d56;"/>
  <path d="M91.14,28.17c-.09-.5-.12-1-.11-1.5,.17-1.41,.75-2.57,2.37-2.63,1.72-.07,2.15,1.21,2.4,2.56,.05,.5,.07,1.01,.04,1.52l-4.7,.05" style="fill: #0a3d56;"/>
  <path d="M104.33,71.5c.46-.68,1.15-.41,1.78-.44v-.02c-.48,.63-1.17,.39-1.79,.44h.01Z" style="fill: #f9af1c;"/>
  <path d="M103.44,71.94c.16-.42,.52-.44,.89-.43h-.01c-.17,.3-.52,.48-.88,.44h0Z" style="fill: #f9af1c;"/>
  <path d="M103.44,71.94c.36,.04,.71-.13,.88-.45,.62-.05,1.3,.18,1.77-.44l5.28,.07c1.66,1.3,1.61,1.89-.24,2.59-2.23,.77-4.63,.88-6.93,.32-1.26-.25-1.52-1.02-.77-2.09" style="fill: #e05428;"/>
</svg>