<svg xmlns="http://www.w3.org/2000/svg" width="230" height="46" viewBox="0 0 230 46">
  <path d="M169.9,26.41c-2.05,0,0-10.36-2.62-10.36-1.52,.05-2.99,.57-4.21,1.48-1.11,1.05-2.5,3.19-3.75,4.67,1.37-5.12,2.28-8.42,.34-8.42-1.27,.09-2.51,.44-3.64,1.02-.98,.56-3,1.86-4.59,2.77-.46-1.59-1.95-2.64-3.6-2.54,0-1.14-.57-1.82-1.59-1.82-2.43,0-5.26,3-6.7,6.58-1.72,3.05-3.78,5.72-4.69,5.72-1.21,0,.87-7.62,2.66-13.73,1.25,.1,2.41,.18,3.26,.18,2.23,.16,4.16-1.52,4.32-3.75,.01-.15,.01-.31,0-.46,0-1.37-1.37,.57-5.69,.57h-.87c.45-1.5,.81-2.72,.99-3.41,.23-.68,0-1.02-.57-1.02-1.59,0-4.21,1.36-4.78,3.19-.11,.37-.24,.8-.38,1.25h-2.02c-2.51,0-3.76,1.37-3.76,2.73,0,.91,.68,.23,2.85,.23,.52,0,1.22,.04,2.02,.1-.49,1.68-.99,3.4-1.34,4.68-.63,2.01-2.9,5.38-5.59,8.06,0-.11,0-.21,0-.32-.11-2.73-.68-10.7-2.27-10.7-1.14,0-3.98,1.59-4.44,2.73-1.48,3.75-7.06,11.49-10.58,11.49-.87,0-1.21-.74-1.32-1.85,3.44-.35,7.58-4.16,7.58-8.28,.17-1.97-1.29-3.7-3.26-3.87-.2-.02-.4-.02-.61,0-5.01,0-8.88,6.6-8.88,11.95,0,3.53,1.93,5.8,5.46,5.8,7.17,0,11.38-8.42,13.09-11.15,2.05,8.76-4.44,7.4-4.44,8.54,.22,1.57,1.61,2.71,3.19,2.62,.07,0,.15,0,.23-.01h0c2.96,.01,7.17-2.61,10.13-7.04-.68,4.44-.45,7.06,2.39,7.06,2.35,0,4.9-2.2,6.58-4.76,.58,2.75,2.36,4.76,5.03,4.76,4.61,0,7.61-5.46,7.94-10,1.26-.4,2.49-.9,3.67-1.49-1.26,6.83-3.19,11.5-1.15,11.5,1.36-.17,2.64-.77,3.64-1.71,1.25-1.25,5.12-7.62,5.8-7.62,1.14,0-1.14,9.33,3.19,9.33,2.85,0,5.58-3.3,5.58-5.12,0-1.48-1.71,.46-2.62,.46m-58.96-9.33c2.02,0-.38,5.39-3.49,5.57,.57-3.24,2.61-5.57,3.49-5.57m34.14,9.79c-3.19,0-1.14-7.51,1.03-9.11-.57,2.05,.45,3.76,2.28,3.76,0,1.71-1.59,5.35-3.3,5.35M72.93,13.77c-2.96,0-5.12,2.62-3.64,2.62,2.73,0,1.37,9.79-1.59,9.79-3.41,0,1.71-17.53,3.64-22.2,.57-1.37,.34-1.94-.8-1.94-1.88,.1-3.58,1.12-4.55,2.73-1.49,4.08-2.67,8.28-3.51,12.54,0,0,0-.02-.02-.02-.68,3.07-3.76,7.97-5.01,7.97-1.14,0,1.37-9.9-1.14-9.9-1.03,0-2.51,1.25-3.07,1.71-1.53,1.79-2.87,3.73-3.98,5.8,.57-3.76,1.14-9.11-.46-9.11-1.15,.21-2.24,.68-3.19,1.37-1.82,1.14-4.32,5.92-5.81,7.74,.57-5.46,.91-8.76-.34-8.76-1.57,.22-2.97,1.09-3.87,2.39-2.16,4.1-5.46,9.1-6.6,9.1s.68-3.64,.68-5.8c0-1.14-2.84-3.07-3.41-1.93-1.37,2.96-3.53,8.08-5.69,8.08-2.28,0,1.37-9.68,5.35-9.68,1.59,0,2.62,.91,2.62,.23,0-2.28-1.71-3.53-3.87-3.53-6.03,0-10.02,7.4-10.02,13.32,0,3.07,1.59,4.78,3.98,4.78,2.51,0,5.01-3.07,5.92-5.12-.8,3.76,.57,5.12,2.51,5.12,3.07,0,5.58-3.41,8.08-7.4-.91,5.92-1.37,7.4,.11,7.4,1.11,0,2.19-.35,3.07-1.02,2.37-2.56,4.44-5.39,6.15-8.43-1.48,6.94-2.05,9.45-.57,9.45,1.31-.01,2.59-.45,3.64-1.25,1.94-2.05,3.66-4.3,5.12-6.72-1.02,6.37-.11,7.97,2.05,7.97s5.38-2.39,7.12-5.76c.38,4.47,2.33,5.76,4.37,5.76,4.1,0,10.24-4.78,10.24-13.54,0-1.82-.8-3.76-3.53-3.76M11.81,25.15c-1.25,0-3.76,.11-5.24,.11s-1.14-1.82-.68-3.64C7.48,14.45,10.1,5.8,10.9,1.59c.23-1.14-.11-1.48-1.25-1.48S5.43,1.48,5.09,2.62C2.95,10.13,1.32,17.77,.2,25.49c-.45,3.41-.34,5.58,2.62,5.58,2.16,0,10.93-1.71,10.93-3.64-.01-1.12-.83-2.08-1.93-2.28M105.82,1.82c-1.37,0-3.98,1.94-4.21,3.64-.8,5.12-5.35,18.21-6.72,18.21-.57,0-.8-.46-.8-2.96,0-7.06,2.62-14.91,2.62-16.28,0-.68-.46-.91-1.14-.91-1.82,0-4.1,1.48-4.44,2.62-.62,2.09-1.07,4.22-1.37,6.37-.57,1.94-3.76,11.27-5.01,11.27s-1.14-4.44-1.14-9.1c.07-4.55,.57-9.08,1.48-13.54,.11-.8-.11-1.14-1.03-1.14-2.05,0-4.55,1.14-4.89,2.62-.65,3.26-.96,6.58-.91,9.9,0,10.02,1.14,18.55,4.44,18.55,2.51,0,5.46-4.44,6.49-7.85,0,6.83,1.48,7.85,3.19,7.85,4.78,0,14.23-19.58,14.23-28.34,0-.57-.23-.91-.8-.91" style="fill: #0d3960;"/>
  <path d="M172.18,16.54h-.7v.75h.7c.24,0,.42-.11,.42-.38,0-.21-.16-.38-.37-.38-.02,0-.04,0-.05,0m.32,1.14l.54,1.07h-.53l-.52-1.02h-.51v1.02h-.45v-2.64h1.16c.42-.05,.81,.25,.86,.68,0,.04,0,.08,0,.12,.02,.36-.21,.69-.56,.78m-.54-2.25c-1.1-.02-2.01,.85-2.03,1.95,0,.03,0,.06,0,.08-.02,1.1,.85,2.01,1.95,2.03,.03,0,.05,0,.08,0,1.1,.02,2.01-.85,2.03-1.95,0-.03,0-.05,0-.08,.02-1.1-.85-2.01-1.95-2.04-.03,0-.06,0-.08,0m0,4.45c-1.31,.03-2.39-1.02-2.42-2.33,0-.03,0-.06,0-.09-.03-1.31,1.01-2.39,2.32-2.42,.03,0,.06,0,.1,0,1.31-.03,2.39,1.01,2.42,2.32,0,.03,0,.06,0,.1,.03,1.31-1.01,2.39-2.32,2.42-.03,0-.06,0-.1,0" style="fill: #0d3960;"/>
  <path d="M229.87,28.93c-.02-.1-.03-.36-.05-.54-.05-.54-.08-1.1-.16-1.64-.03-.13-.05-.27-.05-.4-.11-.56-.22-1.12-.34-1.67-.06-.17-.11-.35-.14-.53-.16-.61-.39-1.21-.67-1.78-.03-.05-.08-.22-.1-.27-.04-.07-.09-.14-.14-.2-.24-.43-.42-.71-.68-1.1-.07-.1-.13-.15-.2-.24l-.14-.18s-.03-.04-.04-.05c-.04-.06-.08-.12-.12-.18-.16-.14-.19-.17-.29-.26-.13-.08-.21-.19-.33-.28-.19-.13-.39-.27-.58-.39-.03-.02-.07-.05-.1-.07s-.2-.12-.25-.14c-.1-.05-.15-.08-.24-.12s-.12-.06-.2-.09c-.04-.02-.07-.05-.1-.07-.1-.06-.2-.1-.29-.14-.02,0-.03-.04-.06-.05-.19-.08-.39-.13-.6-.17-1.02-.27-2.09-.36-3.14-.25-.48,.09-.97,.16-1.43,.27-.17,.07-.51,.22-.51,.22,0,0-.18,.08-.25,.12-.27,.1-.5,.22-.75,.34s-.48,.23-.74,.36c-.18,.13-.37,.26-.54,.4s-.33,.26-.53,.41c-.04,.04-.34,.34-.5,.49-.03,.05-.22,.23-.26,.28-.09,.13-.19,.24-.29,.35-.29,.36-.55,.73-.8,1.12-.36,.62-.65,1.28-.87,1.96-.2,.53-.34,1.09-.42,1.65-.09,.59-.12,1.19-.22,1.79-.01,.09-.05,.17-.06,.26-.01,.23,0,.47,0,.7,0,.14,0,.27,.01,.36-.02,.14,.04,.78,.05,1.19,0,.15,.04,.29,.08,.43,.75,0,1.55,0,2.29,.04s1.43-.02,2.15,.02c.27,.02,.57-.01,.87-.02,.6-.01,1.16-.03,1.72-.03,.29-.02,.59-.03,.88-.02,.03,0,.07,0,.1,0,.91,.05,1.73-.06,2.57,0,.04,0,.14,0,.19,0,.22,.02,.47-.02,.7,0,.35,.02,1-.02,1.4,.03,.36,.04,.74-.06,1.12-.02,.28,.03,.63,0,.94,.02,.7,.05,1.52,0,2.18,0,.04-.62,.03-1.25-.05-1.87" style="fill: #ffaf00; fill-rule: evenodd;"/>
  <path d="M211.22,29.84c0-.18-.04-.54-.03-.83-.02-.22-.03-.45-.03-.67-.04-.61-.11-1.13-.19-1.72-.13-.4-.19-.84-.3-1.27-.08-.25-.15-.51-.2-.77-.1-.27-.19-.54-.25-.82-.17-.36-.28-.77-.43-1.15-.21-.32-.35-.58-.57-.88-.01-.04-.06-.1-.07-.14-.14-.15-.24-.35-.38-.5-.1-.18-.23-.36-.37-.51-.18-.12-.29-.31-.46-.43-.31-.29-.65-.55-1.02-.78-.18-.13-.36-.25-.55-.35-.35-.18-.71-.34-1.08-.48-.04-.01-.12-.05-.16-.07-.08-.03-.17-.05-.26-.08s-.16-.07-.24-.1c-.21-.07-.46-.14-.65-.2-.15-.05-.31-.08-.47-.1-.12-.02-.26,0-.4-.02-.14-.02-.33,0-.49-.03-.17-.02-.33-.03-.5-.02-.48,.05-.94,.08-1.38,.17-.41,.12-.84,.23-1.22,.38-.29,.17-.58,.36-.87,.53-.3,.16-.59,.34-.87,.54-.43,.47-.83,.96-1.21,1.48-.03,.05-.12,.16-.14,.17s-.04,.08-.05,.09c-.3,.45-.6,.9-.89,1.35-.07,.13-.14,.26-.19,.4-.2,.41-.37,.84-.5,1.28-.04,.15-.08,.31-.11,.47-.05,.23-.15,.48-.21,.68-.03,.08-.02,.17-.04,.26,0,.04-.04,.09-.05,.13s0,.11-.02,.17-.04,.09-.05,.14,0,.12-.02,.18c-.02,.1-.06,.21-.08,.32-.04,.22-.08,.45-.11,.68-.05,.28-.08,.57-.08,.85,0,.1-.02,.2-.02,.3,0,.13,.03,.28,.03,.42,.03,.57,.06,1.1,.07,1.68,.5,.06,.94,0,1.48,.04h.1c.28,.03,.58,.03,.85,.03,.33,0,.67-.02,.99,.01,.45,.04,.92,.02,1.4,.05,.49,.03,1.01,.02,1.49,.02,.17-.01,.33-.01,.5,0,.05,0,.09,0,.14,0,.02,0,.05,.02,.06,.02,.88,.02,1.6,.01,2.47,.07,.28,.02,.57-.03,.85,.01,.3,.03,.61,.04,.91,.03,.08,0,.16,0,.24,0,.23,.02,.46,.03,.69,.02,1.15,.02,2.45,.05,3.63,0,.2,0,.39-.02,.58,0,.26-.02,.51-.03,.77-.02-.01-.35,.02-.72,0-1.02" style="fill: #e34b00; fill-rule: evenodd;"/>
  <path d="M192.48,29.01c-.02-.16-.03-.35-.04-.52-.04-.3-.08-.79-.13-1.16-.08-.41-.16-.82-.27-1.2-.04-.32-.16-.58-.22-.88-.12-.31-.24-.61-.35-.93-.15-.32-.31-.63-.46-.96-.09-.13-.17-.27-.23-.42-.1-.15-.19-.3-.27-.47-.2-.27-.35-.56-.54-.83s-.45-.49-.63-.76c-.14-.14-.53-.47-.68-.59-.31-.25-.65-.47-1-.65-.18-.1-.36-.17-.56-.27-.25-.11-.51-.21-.77-.29-.26-.08-.54-.13-.8-.19-.34-.08-.69-.17-1.03-.22-.08,0-.16,0-.24,0-.6-.07-1.2-.08-1.81-.05-.5,.09-.93,.22-1.37,.34-.57,.2-1.11,.48-1.61,.83-.31,.21-.6,.45-.88,.7-.09,.07-.29,.34-.34,.4s-.14,.1-.19,.16c-.19,.22-.38,.43-.54,.66-.1,.14-.22,.29-.3,.42-.05,.07-.14,.14-.21,.24-.24,.32-.45,.66-.64,1.02-.22,.4-.35,.75-.4,.86-.23,.44-.4,.91-.5,1.39-.14,.43-.23,.88-.29,1.33-.09,.47-.14,1-.18,1.52-.04,.39-.05,.78-.09,1.17-.07,.37-.09,.74-.07,1.11,1.81-.04,3.74-.07,5.63-.11,.54-.01,1.09-.06,1.63-.03,.7,.03,1.38-.02,2.06,.02,.32,.02,.64-.05,.96-.01,.22,.02,.45,.02,.68,0,.76,0,1.47,0,2.16,.03h.06c.27,0,.49,0,.73,0,.13,0,.29,.01,.33,.01,.19,0,.37,0,.56,.02,.34,.02,.65-.01,.99,0,.65,.04,1.23-.03,1.87,0,.03-.56,.04-1.12,.01-1.67" style="fill: #0d3960; fill-rule: evenodd;"/>
  <g>
    <path d="M37.01,41.64c-.69-.24-1.29-.45-1.29-1.04,.01-.48,.41-.86,.89-.85,.02,0,.05,0,.07,0,.32-.01,.63,.08,.89,.27,.13,.1,.29,.17,.46,.18,.27,0,.49-.22,.49-.49,0,0,0-.01,0-.02,0-.55-.94-.92-1.81-.92-1.11-.05-2.06,.78-2.15,1.89,0,1.3,1.01,1.65,1.91,1.96,.72,.25,1.35,.47,1.35,1.13,.03,.68-.5,1.25-1.17,1.27-.04,0-.07,0-.11,0-.4,0-.79-.13-1.12-.35-.13-.1-.28-.16-.44-.18-.27,0-.49,.23-.48,.51,0,.02,0,.03,0,.05,0,.62,1.18,.95,2.03,.95,1.26,.08,2.36-.87,2.44-2.14,0-.05,0-.11,0-.16,0-1.37-1.09-1.75-1.97-2.06" style="fill: #e34b00;"/>
    <path d="M43.33,39.86c.27,.03,.51-.17,.54-.44,0-.03,0-.05,0-.08,.02-.27-.19-.5-.46-.52-.03,0-.05,0-.08,0h-2.44c-.3-.02-.56,.2-.58,.5,0,.03,0,.06,0,.09v5.94c-.03,.3,.19,.56,.49,.59,.03,0,.06,0,.09,0h2.44c.27,.03,.51-.17,.54-.44,0-.03,0-.05,0-.08,.02-.27-.19-.5-.46-.52-.03,0-.05,0-.08,0h-1.92v-2h1.74c.27,.03,.51-.17,.54-.44,0-.03,0-.05,0-.08,.02-.27-.19-.5-.46-.52-.03,0-.05,0-.08,0h-1.74v-2h1.92Z" style="fill: #e34b00;"/>
    <path d="M48.43,39.86c.27,.03,.51-.17,.54-.44,0-.03,0-.05,0-.08,.02-.27-.19-.5-.46-.52-.03,0-.05,0-.08,0h-2.44c-.3-.02-.55,.2-.58,.5,0,.03,0,.06,0,.09v5.94c-.03,.3,.19,.56,.49,.59,.03,0,.06,0,.09,0h2.44c.27,.03,.51-.17,.54-.44,0-.03,0-.05,0-.08,.02-.27-.19-.5-.46-.52-.03,0-.05,0-.08,0h-1.92v-2h1.74c.27,.03,.51-.17,.54-.44,0-.03,0-.05,0-.08,.02-.27-.19-.5-.46-.52-.03,0-.05,0-.08,0h-1.74v-2h1.92Z" style="fill: #e34b00;"/>
    <path d="M51.06,38.77c-.29,0-.54,.22-.55,.52,0,.02,0,.04,0,.06v6.07c-.02,.29,.2,.55,.49,.57,.02,0,.04,0,.05,0,.29,0,.54-.22,.55-.52,0-.02,0-.04,0-.06v-6.07c.02-.29-.2-.55-.49-.58-.02,0-.04,0-.06,0" style="fill: #e34b00;"/>
    <path d="M58.32,38.77c-.29,0-.54,.22-.55,.52,0,.02,0,.04,0,.06v4.6l-3.26-4.68c-.24-.36-.39-.5-.7-.5-.34,0-.51,.21-.51,.63v6.03c-.02,.29,.19,.55,.49,.58,.02,0,.04,0,.06,0,.29,0,.54-.22,.55-.52,0-.02,0-.04,0-.06v-4.61l3.27,4.69c.24,.35,.39,.5,.7,.5,.34,0,.51-.21,.51-.63v-6.02c.03-.29-.19-.55-.48-.58-.02,0-.05,0-.07,0" style="fill: #e34b00;"/>
    <path d="M65.75,41.75h-1.43c-.27-.03-.51,.17-.54,.44,0,.03,0,.05,0,.08-.02,.27,.19,.5,.46,.52,.03,0,.05,0,.08,0h1.07v.28c.04,1.03-.77,1.9-1.8,1.94h-.05c-1.54,0-2.08-1.42-2.08-2.63,0-1.31,.63-2.63,2.04-2.63,.53,0,1.04,.17,1.44,.51,.15,.14,.35,.23,.56,.26,.29,0,.52-.22,.53-.51,0,0,0-.02,0-.02,0-.48-1.06-1.22-2.48-1.22-2.25,0-3.26,1.82-3.26,3.61s.98,3.61,3.13,3.61c2,0,3.06-1.18,3.06-3.42,0-.57-.22-.82-.74-.82" style="fill: #e34b00;"/>
    <path d="M74.56,41.11c.02,.68-.51,1.26-1.2,1.28-.03,0-.06,0-.09,0h-1.12v-2.59h1.09c.67-.06,1.26,.44,1.32,1.11,0,.06,0,.13,0,.19m-1.25-2.28h-1.68c-.3-.02-.56,.2-.58,.5,0,.03,0,.06,0,.09v6.01c-.02,.29,.19,.55,.49,.58,.02,0,.04,0,.06,0,.29,.01,.54-.22,.55-.51,0-.02,0-.04,0-.06v-2.05h1.19c1.25,.03,2.29-.97,2.32-2.22v-.05c.04-1.22-.92-2.25-2.15-2.29-.07,0-.14,0-.2,0" style="fill: #e34b00;"/>
    <path d="M79.79,45.01c-1.46,0-1.98-1.36-1.98-2.63s.52-2.63,1.98-2.63,1.98,1.36,1.98,2.63-.52,2.63-1.98,2.63m0-6.25c-2.06,0-3.13,1.82-3.13,3.61s1.08,3.62,3.13,3.62,3.13-1.82,3.13-3.61-1.08-3.62-3.13-3.62" style="fill: #e34b00;"/>
    <path d="M86.51,41.64c-.69-.24-1.29-.45-1.29-1.04,.01-.48,.41-.86,.89-.85,.02,0,.05,0,.07,0,.32-.01,.63,.08,.89,.27,.13,.1,.29,.17,.46,.18,.27,0,.49-.22,.49-.49,0,0,0-.01,0-.02,0-.55-.94-.92-1.81-.92-1.11-.05-2.06,.78-2.15,1.89,0,1.3,1.01,1.65,1.91,1.96,.72,.25,1.35,.47,1.35,1.13,.03,.68-.5,1.25-1.17,1.27-.04,0-.07,0-.11,0-.4,0-.79-.13-1.12-.35-.13-.1-.28-.16-.44-.18-.27,0-.49,.23-.49,.51,0,.02,0,.03,0,.05,0,.62,1.18,.95,2.03,.95,1.26,.08,2.36-.87,2.44-2.13,0-.05,0-.11,0-.16,0-1.37-1.09-1.75-1.97-2.06" style="fill: #e34b00;"/>
    <path d="M91.97,41.64c-.69-.24-1.29-.45-1.29-1.04,.01-.48,.41-.86,.89-.85,.02,0,.05,0,.07,0,.32-.01,.63,.08,.89,.27,.13,.1,.29,.17,.46,.18,.27,0,.49-.22,.49-.49,0,0,0,0,0-.01,0-.55-.94-.92-1.81-.92-1.11-.05-2.06,.78-2.15,1.89,0,1.3,1.01,1.65,1.91,1.96,.72,.25,1.35,.47,1.35,1.13,.03,.68-.5,1.25-1.17,1.27-.04,0-.07,0-.11,0-.4,0-.79-.13-1.12-.35-.13-.1-.28-.16-.44-.18-.27,0-.49,.23-.48,.51,0,.02,0,.03,0,.05,0,.62,1.18,.95,2.03,.95,1.26,.08,2.36-.87,2.44-2.14,0-.05,0-.11,0-.16,0-1.37-1.09-1.75-1.97-2.06" style="fill: #e34b00;"/>
    <path d="M95.88,38.77c-.29,0-.54,.22-.55,.52,0,.02,0,.04,0,.06v6.07c-.02,.29,.2,.55,.49,.57,.02,0,.04,0,.05,0,.29,0,.54-.22,.55-.52,0-.02,0-.04,0-.05v-6.07c.02-.29-.19-.55-.49-.58-.02,0-.04,0-.06,0" style="fill: #e34b00;"/>
    <path d="M99.22,41.73v-1.92h.87c.47-.07,.91,.26,.98,.74,0,.07,.01,.13,0,.2,.03,.52-.37,.96-.88,.99-.04,0-.09,0-.13,0h-.84Zm2.38,2.08c-.02,.65-.56,1.17-1.21,1.16-.03,0-.07,0-.1,0h-1.07v-2.29h1.11c.63-.07,1.2,.38,1.27,1.01,0,.04,0,.08,0,.13m-.15-1.75c.48-.34,.75-.89,.72-1.47-.04-1.01-.88-1.8-1.9-1.77-.03,0-.05,0-.08,0h-1.49c-.3-.02-.56,.2-.58,.5,0,.03,0,.06,0,.09v5.94c-.03,.3,.19,.56,.48,.59,.03,0,.06,0,.09,0h1.63c1.19,.12,2.25-.75,2.36-1.94,0-.06,0-.13,.01-.19,0-.79-.5-1.5-1.25-1.75" style="fill: #e34b00;"/>
    <path d="M104.67,38.77c-.3,0-.54,.22-.55,.52,0,.02,0,.04,0,.06v6.07c-.02,.29,.2,.55,.49,.57,.02,0,.04,0,.06,0,.29,0,.54-.22,.55-.52,0-.02,0-.04,0-.06v-6.07c.02-.29-.19-.55-.49-.58-.02,0-.04,0-.06,0" style="fill: #e34b00;"/>
    <path d="M109.69,44.9h-1.69v-5.55c.02-.29-.19-.55-.49-.58-.02,0-.04,0-.06,0-.29,0-.54,.22-.55,.52,0,.02,0,.04,0,.06v6.01c-.03,.3,.19,.56,.49,.59,.03,0,.06,0,.09,0h2.21c.27,.03,.51-.17,.54-.44,0-.03,0-.05,0-.08,.02-.27-.19-.5-.46-.52-.03,0-.05,0-.08,0" style="fill: #e34b00;"/>
    <path d="M112.03,38.77c-.29,0-.54,.22-.55,.52,0,.02,0,.04,0,.06v6.07c-.02,.29,.2,.55,.49,.57,.02,0,.04,0,.05,0,.29,0,.54-.22,.55-.52,0-.02,0-.04,0-.05v-6.07c.02-.29-.19-.55-.49-.58-.02,0-.04,0-.06,0" style="fill: #e34b00;"/>
    <path d="M117.87,38.82h-3.41c-.27-.03-.51,.17-.54,.44,0,.03,0,.05,0,.08-.02,.27,.19,.5,.46,.52,.03,0,.05,0,.08,0h1.16v5.55c-.02,.29,.19,.55,.49,.58,.02,0,.04,0,.06,0,.29,0,.54-.22,.55-.52,0-.02,0-.04,0-.06v-5.55h1.16c.27,.03,.51-.17,.54-.44,0-.03,0-.05,0-.08,.02-.27-.19-.5-.46-.52-.03,0-.05,0-.08,0" style="fill: #e34b00;"/>
    <path d="M120.3,38.77c-.29,0-.54,.22-.55,.52,0,.02,0,.04,0,.06v6.07c-.02,.29,.2,.55,.49,.57,.02,0,.04,0,.05,0,.29,0,.54-.22,.55-.52,0-.02,0-.04,0-.05v-6.07c.02-.29-.19-.55-.49-.58-.02,0-.04,0-.06,0" style="fill: #e34b00;"/>
    <path d="M125.51,39.86c.27,.03,.51-.17,.54-.44,0-.03,0-.05,0-.08,.02-.27-.19-.5-.46-.52-.03,0-.05,0-.08,0h-2.44c-.3-.02-.56,.2-.58,.5,0,.03,0,.06,0,.09v5.94c-.03,.3,.19,.56,.49,.59,.03,0,.06,0,.09,0h2.44c.27,.03,.51-.17,.54-.44,0-.03,0-.05,0-.08,.02-.27-.19-.5-.46-.52-.03,0-.05,0-.08,0h-1.92v-2h1.74c.27,.03,.51-.17,.54-.44,0-.03,0-.05,0-.08,.02-.27-.19-.5-.46-.52-.03,0-.05,0-.08,0h-1.74v-2h1.92Z" style="fill: #e34b00;"/>
    <path d="M129.75,41.64c-.69-.24-1.29-.45-1.29-1.04,.01-.48,.41-.86,.89-.85,.02,0,.05,0,.07,0,.32-.01,.63,.08,.89,.27,.13,.1,.29,.17,.46,.18,.27,0,.49-.22,.49-.49,0,0,0,0,0-.01,0-.55-.94-.92-1.81-.92-1.11-.05-2.06,.78-2.15,1.89,0,1.3,1.01,1.65,1.91,1.96,.72,.25,1.35,.47,1.35,1.13,.03,.68-.5,1.25-1.17,1.27-.04,0-.07,0-.11,0-.4,0-.79-.13-1.12-.35-.13-.1-.28-.16-.44-.18-.27,0-.49,.23-.49,.51,0,.02,0,.03,0,.05,0,.62,1.18,.95,2.03,.95,1.26,.09,2.36-.87,2.44-2.13,0-.05,0-.11,0-.16,0-1.37-1.09-1.75-1.97-2.06" style="fill: #e34b00;"/>
    <path d="M136.83,38.77c-.29,0-.54,.22-.55,.52,0,.02,0,.04,0,.06v6.07c-.02,.29,.2,.55,.49,.57,.02,0,.04,0,.05,0,.29,0,.54-.22,.55-.52,0-.02,0-.04,0-.05v-6.07c.02-.29-.19-.55-.49-.58-.02,0-.04,0-.06,0" style="fill: #e34b00;"/>
    <path d="M144.09,38.77c-.29,0-.54,.22-.55,.52,0,.02,0,.04,0,.06v4.6l-3.26-4.68c-.24-.36-.39-.5-.7-.5-.34,0-.51,.21-.51,.63v6.03c-.02,.29,.19,.55,.49,.58,.02,0,.04,0,.06,0,.3,0,.54-.22,.55-.52,0-.02,0-.04,0-.06v-4.61l3.27,4.69c.24,.35,.39,.5,.7,.5,.34,0,.51-.21,.51-.63v-6.02c.03-.29-.19-.55-.48-.58-.02,0-.05,0-.07,0" style="fill: #e34b00;"/>
    <path d="M153.07,41.11c.02,.68-.51,1.26-1.2,1.28-.03,0-.06,0-.09,0h-1.12v-2.59h1.09c.67-.06,1.26,.44,1.32,1.12,0,.06,0,.13,0,.19m-1.26-2.28h-1.68c-.3-.02-.56,.2-.58,.5,0,.03,0,.06,0,.09v6.01c-.02,.29,.19,.55,.49,.58,.02,0,.04,0,.06,0,.3,.01,.54-.22,.56-.51,0-.02,0-.04,0-.06v-2.05h1.19c1.25,.03,2.29-.97,2.32-2.22v-.05c.04-1.22-.92-2.25-2.15-2.29-.07,0-.14,0-.21,0" style="fill: #e34b00;"/>
    <path d="M158.26,45.01c-1.46,0-1.98-1.36-1.98-2.63s.52-2.63,1.98-2.63,1.98,1.36,1.98,2.63-.52,2.63-1.98,2.63m0-6.25c-2.06,0-3.13,1.82-3.13,3.61s1.08,3.62,3.13,3.62,3.13-1.82,3.13-3.61-1.08-3.62-3.13-3.62" style="fill: #e34b00;"/>
    <path d="M166.02,38.82h-3.41c-.27-.03-.51,.17-.54,.44,0,.03,0,.05,0,.08-.02,.27,.19,.5,.46,.52,.03,0,.05,0,.08,0h1.16v5.55c-.02,.29,.19,.55,.49,.58,.02,0,.04,0,.06,0,.29,0,.54-.22,.55-.52,0-.02,0-.04,0-.06v-5.55h1.16c.27,.03,.51-.17,.54-.44,0-.03,0-.05,0-.08,.02-.27-.19-.5-.46-.52-.03,0-.05,0-.08,0" style="fill: #e34b00;"/>
    <path d="M171.13,43.46h-2.31l1.15-3.24,1.15,3.24Zm-.43-4.09c-.07-.34-.37-.59-.72-.6-.35,0-.65,.26-.72,.6l-2.14,5.68-.02,.05c-.05,.13-.09,.27-.1,.41,0,.27,.23,.49,.5,.48h.03c.25,0,.47-.16,.53-.4l.41-1.15h3.01l.41,1.15c.06,.24,.28,.41,.53,.4,.27,.02,.51-.18,.53-.45v-.03c-.01-.14-.05-.28-.1-.41l-2.15-5.74Z" style="fill: #e34b00;"/>
    <path d="M177.36,38.82h-3.41c-.27-.03-.51,.17-.54,.44,0,.03,0,.05,0,.08-.02,.27,.19,.5,.46,.52,.03,0,.05,0,.08,0h1.16v5.55c-.02,.29,.19,.55,.49,.58,.02,0,.04,0,.06,0,.3,0,.54-.22,.55-.52,0-.02,0-.04,0-.06v-5.55h1.16c.27,.03,.51-.17,.54-.44,0-.03,0-.05,0-.08,.02-.27-.19-.5-.46-.52-.03,0-.05,0-.08,0" style="fill: #e34b00;"/>
    <path d="M181.63,45.01c-1.46,0-1.98-1.36-1.98-2.63s.52-2.63,1.98-2.63,1.98,1.36,1.98,2.63-.52,2.63-1.98,2.63m0-6.25c-2.06,0-3.13,1.82-3.13,3.61s1.08,3.62,3.13,3.62,3.13-1.82,3.13-3.61-1.08-3.62-3.13-3.62" style="fill: #e34b00;"/>
    <path d="M189.16,39.86c.27,.03,.51-.17,.54-.44,0-.03,0-.05,0-.08,.02-.27-.19-.5-.46-.52-.03,0-.05,0-.08,0h-2.44c-.3-.02-.56,.2-.58,.5,0,.03,0,.06,0,.09v5.94c-.03,.3,.19,.56,.49,.59,.03,0,.06,0,.09,0h2.44c.27,.03,.51-.17,.54-.44,0-.03,0-.05,0-.08,.02-.27-.19-.5-.46-.52-.03,0-.05,0-.08,0h-1.92v-2h1.74c.27,.03,.51-.17,.54-.44,0-.03,0-.05,0-.08,.02-.27-.19-.5-.46-.52-.03,0-.05,0-.08,0h-1.74v-2h1.92Z" style="fill: #e34b00;"/>
    <path d="M193.51,41.64c-.69-.24-1.29-.45-1.29-1.04,.01-.48,.41-.86,.89-.85,.02,0,.05,0,.07,0,.32-.01,.63,.08,.89,.27,.13,.1,.29,.17,.46,.18,.27,0,.49-.22,.49-.49,0,0,0,0,0-.01,0-.55-.94-.92-1.81-.92-1.11-.05-2.06,.78-2.15,1.89,0,1.3,1.01,1.65,1.91,1.96,.72,.25,1.35,.47,1.35,1.13,.03,.68-.5,1.25-1.17,1.27-.04,0-.07,0-.11,0-.4,0-.79-.13-1.12-.35-.13-.1-.28-.16-.44-.18-.27,0-.49,.23-.49,.51,0,.02,0,.03,0,.05,0,.62,1.18,.95,2.03,.95,1.26,.08,2.36-.87,2.44-2.14,0-.05,0-.11,0-.16,0-1.37-1.09-1.75-1.97-2.06" style="fill: #e34b00;"/>
  </g>
</svg>